<svg xmlns="http://www.w3.org/2000/svg" width="120" height="1200" viewBox="0 0 120 1200">
  <defs>
    <linearGradient id="spine" x1="0" x2="1">
      <stop offset="0" stop-color="#7a5c44" stop-opacity="0.08"/>
      <stop offset="0.30" stop-color="#fff5e9" stop-opacity="0.72"/>
      <stop offset="0.50" stop-color="#b9936f" stop-opacity="0.55"/>
      <stop offset="0.70" stop-color="#fff8ef" stop-opacity="0.78"/>
      <stop offset="1" stop-color="#70513b" stop-opacity="0.10"/>
    </linearGradient>
    <linearGradient id="metal" x1="0" y1="0" x2="1" y2="0">
      <stop offset="0" stop-color="#6f5a4b"/>
      <stop offset="0.20" stop-color="#e8d6c4"/>
      <stop offset="0.44" stop-color="#8b715f"/>
      <stop offset="0.62" stop-color="#fff1dd"/>
      <stop offset="1" stop-color="#806553"/>
    </linearGradient>
    <filter id="softShadow" x="-30%" y="-30%" width="160%" height="160%">
      <feDropShadow dx="0" dy="5" stdDeviation="4" flood-color="#3d2d23" flood-opacity="0.28"/>
    </filter>
  </defs>
  <rect x="16" y="0" width="88" height="1200" fill="url(#spine)" opacity="0.9"/>
  <rect x="54" y="0" width="12" height="1200" fill="#8a6a4e" opacity="0.18"/>
  <rect x="58" y="0" width="8" height="1200" fill="#fff4e6" opacity="0.5"/>
  <g filter="url(#softShadow)">
    <g id="ring">
      <path d="M33 18 C45 5 75 5 87 18 C99 31 99 59 87 72 C75 85 45 85 33 72" fill="none" stroke="url(#metal)" stroke-width="9" stroke-linecap="round"/>
      <path d="M34 72 C45 60 75 60 86 72" fill="none" stroke="#5f493b" stroke-opacity="0.35" stroke-width="3" stroke-linecap="round"/>
      <ellipse cx="60" cy="45" rx="22" ry="26" fill="none" stroke="#fff2e3" stroke-opacity="0.55" stroke-width="2"/>
    </g>
    <use href="#ring" y="100"/>
    <use href="#ring" y="200"/>
    <use href="#ring" y="300"/>
    <use href="#ring" y="400"/>
    <use href="#ring" y="500"/>
    <use href="#ring" y="600"/>
    <use href="#ring" y="700"/>
    <use href="#ring" y="800"/>
    <use href="#ring" y="900"/>
    <use href="#ring" y="1000"/>
    <use href="#ring" y="1100"/>
  </g>
</svg>
